<?xml version="1.0" encoding="iso-8859-1"?>
<!-- Generator: Adobe Illustrator 19.0.0, SVG Export Plug-In . SVG Version: 6.00 Build 0)  -->
<svg version="1.1" id="Capa_1" xmlns="http://www.w3.org/2000/svg" xmlns:xlink="http://www.w3.org/1999/xlink" x="0px" y="0px"
	 viewBox="0 0 512.1 512.1" style="enable-background:new 0 0 512.1 512.1;" xml:space="preserve">
<g>
	<path style="fill:#FFD173;" d="M145.15,68.3c4.7,0,8.5,3.8,8.5,8.5c0,2.3-0.9,4.5-2.6,6.1c-1.5,1.6-3.7,2.5-5.9,2.5h-25.6V68.3
		H145.15z"/>
	<path style="fill:#FFD173;" d="M145.15,102.4c4.7,0,8.5,3.8,8.5,8.5c0,2.3-0.9,4.5-2.6,6.1c-1.5,1.6-3.7,2.5-5.9,2.5h-25.6v-17.1
		H145.15z"/>
	<rect x="494.95" y="247.5" style="fill:#FFD173;" width="17.1" height="76.8"/>
	<rect x="494.95" y="213.3" style="fill:#FFD173;" width="17.1" height="17.1"/>
	<rect x="494.95" y="8.5" style="fill:#FFD173;" width="17.1" height="59.7"/>
	<rect x="452.35" y="68.3" style="fill:#FFD173;" width="17.1" height="76.8"/>
	<rect x="452.35" y="34.1" style="fill:#FFD173;" width="17.1" height="17.1"/>
</g>
<path style="fill:#62BEFF;" d="M457.05,396.3c5,5,5,13.1,0,18.1c-2.4,2.4-5.6,3.7-9,3.7h-21.3v-25.6h21.3
	C451.45,392.5,454.65,393.9,457.05,396.3z"/>
<path style="fill:#DAEFF6;" d="M448.05,375.5h-29.9c-4.7,0-8.5,3.8-8.5,8.5v42.7v42.7h17.1v-34.1h21.3c16.5,0,29.9-13.4,29.9-29.9
	C477.95,388.8,464.55,375.5,448.05,375.5z M448.05,418.1h-21.3v-25.6h21.3c7.1,0,12.8,5.7,12.8,12.8
	C460.85,412.4,455.15,418.1,448.05,418.1z"/>
<path style="fill:#41BD8C;" d="M341.35,102.4c42.4,0,76.8,34.4,76.8,76.8s-34.3,76.8-76.8,76.8s-76.8-34.4-76.8-76.8
	C264.65,136.8,298.95,102.5,341.35,102.4z M341.35,221.9c23.6,0,42.7-19.1,42.7-42.7s-19.1-42.7-42.7-42.7h-25.6
	c-4.7,0-8.5,3.8-8.5,8.5v68.3c0,4.7,3.8,8.5,8.5,8.5h25.6V221.9z"/>
<rect x="384.05" y="375.5" style="fill:#DAEFF6;" width="17.1" height="93.9"/>
<path style="fill:#62BEFF;" d="M418.15,375.5c-4.7,0-8.5,3.8-8.5,8.5v85.3h17.1v-34.1h21.3c16.5,0,29.9-13.4,29.9-29.9
	s-13.4-29.9-29.9-29.9h-29.9V375.5z M401.15,469.3v-93.9h-17.1v93.9H401.15z M494.95,418.1c0,42.4-34.4,76.8-76.8,76.8
	s-76.8-34.4-76.8-76.8s34.4-76.8,76.8-76.8C460.55,341.4,494.95,375.7,494.95,418.1z"/>
<path style="fill:#41BD8C;" d="M359.45,161c10,10,10,26.2,0,36.3c-4.8,4.8-11.3,7.5-18.1,7.5h-17.1v-17.1h25.6v-17.1h-25.6v-17.1
	h17.1C348.15,153.6,354.65,156.3,359.45,161z"/>
<path style="fill:#168DE2;" d="M418.15,324.3c-51.8,0-93.9,42-93.9,93.9s42,93.9,93.9,93.9s93.9-42,93.9-93.9
	S470.05,324.3,418.15,324.3z M418.15,494.9c-42.4-0.1-76.7-34.4-76.8-76.8c0-42.4,34.4-76.8,76.8-76.8s76.8,34.4,76.8,76.8
	S460.65,494.9,418.15,494.9z"/>
<g>
	<rect x="307.25" style="fill:#FFD173;" width="17.1" height="59.7"/>
	<rect x="298.75" y="477.9" style="fill:#FFD173;" width="17.1" height="17.1"/>
</g>
<path style="fill:#03AA6F;" d="M371.55,149c-8-8-18.8-12.5-30.1-12.5h-25.6c-4.7,0-8.5,3.8-8.5,8.5v68.3c0,4.7,3.8,8.5,8.5,8.5h25.6
	c11.3,0,22.2-4.5,30.2-12.5C388.25,192.6,388.15,165.6,371.55,149z M341.35,204.8h-17.1v-17.1h25.6v-17.1h-25.6v-17.1h17.1
	c14.1,0,25.6,11.5,25.6,25.6S355.55,204.8,341.35,204.8z"/>
<g>
	<rect x="256.05" y="366.9" style="fill:#FFD173;" width="17.1" height="76.8"/>
	<rect x="256.05" y="332.8" style="fill:#FFD173;" width="17.1" height="17.1"/>
</g>
<path style="fill:#03AA6F;" d="M341.35,85.3c-51.8,0-93.8,42-93.9,93.9c0,51.8,42,93.9,93.9,93.9c51.8,0,93.9-42,93.9-93.9
	S393.25,85.3,341.35,85.3z M341.35,256c-42.4-0.1-76.7-34.4-76.8-76.8c0-42.4,34.4-76.8,76.8-76.8s76.8,34.4,76.8,76.8
	S383.85,256,341.35,256z"/>
<g>
	<rect x="196.35" y="213.3" style="fill:#FFD173;" width="17.1" height="34.1"/>
	<rect x="196.35" y="179.2" style="fill:#FFD173;" width="17.1" height="17.1"/>
	<rect x="145.15" y="494.9" style="fill:#FFD173;" width="17.1" height="17.1"/>
	<rect x="145.15" y="460.8" style="fill:#FFD173;" width="17.1" height="17.1"/>
</g>
<path style="fill:#00448F;" d="M141.25,359.3l7.7,15.2l-17.1,8.5c-2.4,1.3-5.3,1.3-7.7,0l-17.1-8.5l7.7-15.2l13.2,6.6L141.25,359.3z
	"/>
<path style="fill:#AFE9F9;" d="M114.85,359.3l-7.7,15.2l17.1,8.5c2.4,1.3,5.3,1.3,7.7,0l17.1-8.5l-7.7-15.2l-13.2,6.6L114.85,359.3z
	 M128.05,413.5l-40.3-46.9l40.3-53.7l40.3,53.7L128.05,413.5z"/>
<path style="fill:#FFD173;" d="M128.05,170.7c-42.4,0-76.8-34.4-76.8-76.8s34.4-76.8,76.8-76.8s76.8,34.4,76.8,76.8
	C204.75,136.3,170.45,170.6,128.05,170.7z M102.45,68.3v51.2h-8.5v17.1h8.5v8.5h17.1v-8.5h17.1v8.5h17.1v-10
	c13.3-4.7,20.3-19.4,15.6-32.7c-1.1-3.1-2.8-6-5.1-8.5c4.3-4.7,6.6-10.8,6.6-17.1c0-10.8-6.9-20.5-17.1-24.1v-10h-17.1v8.5h-17.1
	v-8.5h-17.1v8.5h-8.5v17.1H102.45z"/>
<path style="fill:#FE7C26;" d="M170.75,76.8c0-10.8-6.9-20.5-17.1-24.1v-10h-17.1v8.5h-17.1v-8.5h-17.1v8.5h-8.5v17.1h8.5v25.6v25.6
	h-8.5v17.1h8.5v8.5h17.1v-8.5h17.1v8.5h17.1v-10c3.1-1.1,6-2.8,8.5-5.1c10.5-9.4,11.4-25.6,2-36.1
	C168.45,89.2,170.75,83.1,170.75,76.8z M119.55,68.3h25.6c4.7,0,8.5,3.8,8.5,8.5c0,2.3-0.9,4.5-2.6,6.1c-1.5,1.6-3.7,2.5-5.9,2.5
	h-25.6C119.55,85.4,119.55,68.3,119.55,68.3z M119.55,119.5v-17.1h25.6c4.7,0,8.5,3.8,8.5,8.5c0,2.3-0.9,4.5-2.6,6.1
	c-1.5,1.6-3.7,2.5-5.9,2.5H119.55z"/>
<path style="fill:#00448F;" d="M186.05,361.8l-51.2-68.3c-0.4-0.5-0.8-0.9-1.3-1.3c-3.8-3.1-9.3-2.5-12.4,1.3l-51.1,68.3
	c-2.4,3.2-2.2,7.6,0.3,10.7l51.2,59.7c0.3,0.3,0.6,0.6,0.9,0.9c3.6,3.1,9,2.6,12-0.9l51.2-59.7
	C188.35,369.4,188.45,365,186.05,361.8z M128.05,413.5l-40.3-46.9l40.3-53.7l40.3,53.7L128.05,413.5z"/>
<path style="fill:#AFE9F9;" d="M128.25,281.6h-0.2c-42.4,0-76.8,34.4-76.8,76.8s34.4,76.8,76.8,76.8c-2.5,0-4.9-1.1-6.5-3
	l-51.2-59.7c-2.6-3-2.7-7.5-0.3-10.7l51.2-68.3c1.7-2.1,4.2-3.3,6.8-3.2c2.7,0,5.2,1.2,6.8,3.2l51.2,68.3c2.4,3.2,2.2,7.6-0.3,10.7
	l-51.2,59.7c-1.6,1.9-4,3-6.5,3c42.4,0.1,76.8-34.3,76.9-76.7C204.95,316.1,170.65,281.7,128.25,281.6z"/>
<g>
	<rect x="25.65" y="238.9" style="fill:#FFD173;" width="17.1" height="34.1"/>
	<rect x="25.65" y="204.8" style="fill:#FFD173;" width="17.1" height="17.1"/>
</g>
<path style="fill:#FE7C26;" d="M128.05,0c-51.8,0-93.9,42-93.9,93.9c0,51.8,42,93.8,93.9,93.9c51.8,0,93.9-42,93.9-93.9
	S179.85,0,128.05,0z M128.05,170.7c-42.4,0-76.8-34.4-76.8-76.8c0.1-42.4,34.4-76.7,76.8-76.8c42.4,0,76.8,34.4,76.8,76.8
	S170.45,170.7,128.05,170.7z"/>
<path style="fill:#00448F;" d="M128.05,264.5c-51.8,0-93.9,42-93.9,93.9c0,51.8,42,93.8,93.9,93.9c51.8,0,93.9-42,93.9-93.9
	S179.85,264.5,128.05,264.5z M128.05,435.2c-42.4,0-76.8-34.4-76.8-76.8c0.1-42.4,34.4-76.7,76.8-76.8h0.2
	c42.4,0.1,76.6,34.4,76.6,76.8C204.85,400.8,170.45,435.2,128.05,435.2z"/>
<g>
	<rect x="0.05" y="435.2" style="fill:#FFD173;" width="17.1" height="76.8"/>
	<rect x="0.05" y="401.1" style="fill:#FFD173;" width="17.1" height="17.1"/>
	<rect x="0.05" y="170.7" style="fill:#FFD173;" width="17.1" height="25.6"/>
	<rect x="0.05" style="fill:#FFD173;" width="17.1" height="25.6"/>
</g>
<g>
</g>
<g>
</g>
<g>
</g>
<g>
</g>
<g>
</g>
<g>
</g>
<g>
</g>
<g>
</g>
<g>
</g>
<g>
</g>
<g>
</g>
<g>
</g>
<g>
</g>
<g>
</g>
<g>
</g>
</svg>
